# xmcd CD database file
#
# Track frame offsets:
#	187
#	29375
#	49192
#	70937
#	104225
#	139607
#	164825
#	185325
#	203455
#	244177
#	274367
#
# Disc length: 4233 seconds
#
# Revision: 3
# Processed by: cddbd v1.5.2PL0 Copyright (c) Steve Scherf et al.
# Submitted via: CDex 1.51
#
DISCID=a810870b
DTITLE=Dr. John - Trippin' Live
DYEAR=1900
DGENRE=Rock
TTITLE0=Tipitina
TTITLE1=Wild Honey
TTITLE2=Didn't He Ramble
TTITLE3=Such A Night
TTITLE4=Renegade
TTITLE5=Kin Folk
TTITLE6=Right Place Wrong Time
TTITLE7=My Buddy
TTITLE8=Medley: Down By The Riverside - My Indian Red - Mardi Gras Day - I Shall Not Be Moved
TTITLE9=24 Hours A Day, 365 A Year (featuring Jools Holland)
TTITLE10=Goodnight Irene
EXTD=
EXTT0=
EXTT1=
EXTT2=
EXTT3=
EXTT4=
EXTT5=
EXTT6=
EXTT7=
EXTT8=
EXTT9=
EXTT10=
PLAYORDER=
